<svg id="visual" viewBox="0 0 900 600" width="900" height="600" xmlns="http://www.w3.org/2000/svg" xmlns:xlink="http://www.w3.org/1999/xlink" version="1.1"><path d="M0 133L82 55L164 109L245 127L327 127L409 133L491 115L573 73L655 85L736 121L818 61L900 115L900 0L818 0L736 0L655 0L573 0L491 0L409 0L327 0L245 0L164 0L82 0L0 0Z" fill="#f8ad4c"></path><path d="M0 217L82 163L164 163L245 229L327 199L409 253L491 187L573 133L655 193L736 193L818 139L900 199L900 113L818 59L736 119L655 83L573 71L491 113L409 131L327 125L245 125L164 107L82 53L0 131Z" fill="#f6a240"></path><path d="M0 331L82 385L164 427L245 331L327 349L409 421L491 295L573 427L655 379L736 409L818 379L900 421L900 197L818 137L736 191L655 191L573 131L491 185L409 251L327 197L245 227L164 161L82 161L0 215Z" fill="#f59735"></path><path d="M0 415L82 481L164 469L245 367L327 403L409 469L491 385L573 481L655 445L736 511L818 439L900 487L900 419L818 377L736 407L655 377L573 425L491 293L409 419L327 347L245 329L164 425L82 383L0 329Z" fill="#f48c2a"></path><path d="M0 601L82 601L164 601L245 601L327 601L409 601L491 601L573 601L655 601L736 601L818 601L900 601L900 485L818 437L736 509L655 443L573 479L491 383L409 467L327 401L245 365L164 467L82 479L0 413Z" fill="#f38020"></path></svg>