<svg id="visual" viewBox="0 0 900 600" width="900" height="600" xmlns="http://www.w3.org/2000/svg" xmlns:xlink="http://www.w3.org/1999/xlink" version="1.1"><rect x="0" y="0" width="900" height="600" fill="#f38524"></rect><path d="M0 354L15 359.3C30 364.7 60 375.3 90 386.3C120 397.3 150 408.7 180 413C210 417.3 240 414.7 270 403.7C300 392.7 330 373.3 360 364.2C390 355 420 356 450 358.5C480 361 510 365 540 364.8C570 364.7 600 360.3 630 363.2C660 366 690 376 720 382.7C750 389.3 780 392.7 810 388C840 383.3 870 370.7 885 364.3L900 358L900 601L885 601C870 601 840 601 810 601C780 601 750 601 720 601C690 601 660 601 630 601C600 601 570 601 540 601C510 601 480 601 450 601C420 601 390 601 360 601C330 601 300 601 270 601C240 601 210 601 180 601C150 601 120 601 90 601C60 601 30 601 15 601L0 601Z" fill="#f59735"></path><path d="M0 443L15 440.8C30 438.7 60 434.3 90 432.2C120 430 150 430 180 435.2C210 440.3 240 450.7 270 449.5C300 448.3 330 435.7 360 429.5C390 423.3 420 423.7 450 425.5C480 427.3 510 430.7 540 437.5C570 444.3 600 454.7 630 453.8C660 453 690 441 720 436.5C750 432 780 435 810 432.3C840 429.7 870 421.3 885 417.2L900 413L900 601L885 601C870 601 840 601 810 601C780 601 750 601 720 601C690 601 660 601 630 601C600 601 570 601 540 601C510 601 480 601 450 601C420 601 390 601 360 601C330 601 300 601 270 601C240 601 210 601 180 601C150 601 120 601 90 601C60 601 30 601 15 601L0 601Z" fill="#f4902e"></path><path d="M0 502L15 496C30 490 60 478 90 474.8C120 471.7 150 477.3 180 477.8C210 478.3 240 473.7 270 470.7C300 467.7 330 466.3 360 471C390 475.7 420 486.3 450 491.7C480 497 510 497 540 493.3C570 489.7 600 482.3 630 480.7C660 479 690 483 720 486.7C750 490.3 780 493.7 810 495C840 496.3 870 495.7 885 495.3L900 495L900 601L885 601C870 601 840 601 810 601C780 601 750 601 720 601C690 601 660 601 630 601C600 601 570 601 540 601C510 601 480 601 450 601C420 601 390 601 360 601C330 601 300 601 270 601C240 601 210 601 180 601C150 601 120 601 90 601C60 601 30 601 15 601L0 601Z" fill="#f48827"></path><path d="M0 554L15 550C30 546 60 538 90 535.5C120 533 150 536 180 538.3C210 540.7 240 542.3 270 538.5C300 534.7 330 525.3 360 524.3C390 523.3 420 530.7 450 531.7C480 532.7 510 527.3 540 528C570 528.7 600 535.3 630 541.3C660 547.3 690 552.7 720 554.8C750 557 780 556 810 551.8C840 547.7 870 540.3 885 536.7L900 533L900 601L885 601C870 601 840 601 810 601C780 601 750 601 720 601C690 601 660 601 630 601C600 601 570 601 540 601C510 601 480 601 450 601C420 601 390 601 360 601C330 601 300 601 270 601C240 601 210 601 180 601C150 601 120 601 90 601C60 601 30 601 15 601L0 601Z" fill="#f38020"></path></svg>